<?xml version="1.0" encoding="UTF-8"?>
<svg xmlns="http://www.w3.org/2000/svg" xmlns:xlink="http://www.w3.org/1999/xlink" width="13px" height="13px" viewBox="0 0 13 13" version="1.1">
<g id="surface1">
<path style=" stroke:none;fill-rule:nonzero;fill:rgb(0%,0%,0%);fill-opacity:1;" d="M 1.398438 0.101562 C 0.84375 0.246094 0.433594 0.578125 0.199219 1.078125 C 0.0429688 1.410156 0.0507812 1.117188 0.0507812 6.527344 C 0.0507812 11.328125 0.0546875 11.472656 0.0976562 11.660156 C 0.253906 12.261719 0.699219 12.699219 1.339844 12.878906 C 1.527344 12.929688 1.601562 12.933594 2.65625 12.945312 L 3.777344 12.953125 L 3.792969 11.484375 C 3.800781 10.675781 3.804688 9.488281 3.804688 8.839844 L 3.796875 7.667969 L 5.65625 7.667969 L 6.390625 8.839844 C 6.792969 9.488281 7.394531 10.4375 7.71875 10.957031 C 8.042969 11.472656 8.457031 12.132812 8.636719 12.421875 L 8.96875 12.949219 L 12.996094 12.949219 L 12.625 12.359375 C 12.421875 12.035156 12.140625 11.585938 12.003906 11.363281 C 11.863281 11.140625 11.683594 10.851562 11.605469 10.726562 C 11.523438 10.601562 11.277344 10.21875 11.0625 9.875 C 10.847656 9.535156 10.5 8.992188 10.296875 8.671875 C 9.550781 7.511719 9.441406 7.335938 9.449219 7.332031 C 9.453125 7.328125 9.539062 7.296875 9.636719 7.265625 C 9.910156 7.175781 10.320312 6.972656 10.589844 6.792969 C 11.460938 6.210938 12.03125 5.390625 12.175781 4.507812 C 12.230469 4.167969 12.214844 3.484375 12.140625 3.171875 C 12.023438 2.679688 11.800781 2.1875 11.515625 1.785156 C 10.785156 0.765625 9.777344 0.253906 8.179688 0.0898438 C 7.851562 0.0546875 7.324219 0.0507812 4.691406 0.0546875 C 1.707031 0.0546875 1.578125 0.0546875 1.398438 0.101562 Z M 7.164062 2.417969 C 8.210938 2.59375 8.664062 2.890625 8.824219 3.496094 C 8.871094 3.679688 8.871094 4.0625 8.824219 4.246094 C 8.695312 4.734375 8.332031 5.097656 7.789062 5.28125 C 7.230469 5.472656 6.957031 5.496094 5.242188 5.496094 L 3.796875 5.496094 L 3.796875 2.355469 L 5.359375 2.367188 C 6.648438 2.375 6.960938 2.386719 7.164062 2.417969 Z M 7.164062 2.417969 "/>
</g>
</svg>
